<svg xmlns="http://www.w3.org/2000/svg" viewBox="0 0 1194.37 800"><defs><style>.cls-1{fill:#fff;}</style></defs><title>loading</title><g id="スプーン"><path class="cls-1" d="M387.22,0c-96,0-173.85,84.79-173.85,189.37,0,84.61,50.94,156.21,121.23,180.5v88.75H439.83V369.88c70.28-24.29,121.23-95.9,121.23-180.51C561.06,84.79,483.23,0,387.22,0ZM308.69,127.68a120.69,120.69,0,0,0-16.57,61.69,15.25,15.25,0,0,1-30.5,0,150.45,150.45,0,0,1,20.75-76.89c13.16-22.15,31.94-40.08,54.46-51.08a15.35,15.35,0,0,1,20.44,6.8,14.94,14.94,0,0,1-6.9,20.13C333.68,96.47,319.09,110.16,308.69,127.68Z"/><path class="cls-1" d="M455.42,482.12H319a16.31,16.31,0,0,0-16.42,16.2V716.59c0,46.07,37.89,83.41,84.63,83.41s84.64-37.34,84.64-83.41V498.32A16.32,16.32,0,0,0,455.42,482.12Zm-68.2,244.7a22,22,0,1,1,22.36-22A22.21,22.21,0,0,1,387.22,726.82Zm0-154.31a22,22,0,1,1,22.36-22A22.21,22.21,0,0,1,387.22,572.51Z"/></g><g id="フォーク"><path class="cls-1" d="M935.5,0c-23.59,0-42.71,18.85-42.71,42.08V222.45c0,36.88-31.26,54.15-52.16,54.15.2-2.31.31-4.37.31-6.05V42.08C840.94,18.85,821.82,0,798.24,0s-42.7,18.85-42.7,42.08V270.55c0,1.68.11,3.74.31,6.05-20.9,0-52.16-17.27-52.16-54.15V42.08C703.69,18.85,684.57,0,661,0s-42.7,18.85-42.7,42.08v190.4c0,82.08,62,123.29,119.07,140,1.35.4,8.28,2,8.28,5.32v80.85H850.85V377.77c0-3.34,6.94-4.92,8.27-5.32,57.13-16.68,119.08-57.89,119.08-140V42.08C978.2,18.85,959.08,0,935.5,0Z"/><path class="cls-1" d="M866.45,482.12H730a16.31,16.31,0,0,0-16.42,16.2V716.53a.35.35,0,0,0,0,.06c0,46.07,37.9,83.41,84.63,83.41s84.65-37.34,84.65-83.41V498.32A16.32,16.32,0,0,0,866.45,482.12Zm-68.21,244.7a22,22,0,1,1,22.37-22A22.2,22.2,0,0,1,798.24,726.82Zm0-154.31a22,22,0,1,1,22.37-22A22.2,22.2,0,0,1,798.24,572.51Z"/></g></svg>